<?xml version="1.0" encoding="utf-8"?>
<!-- Generator: Adobe Illustrator 16.0.0, SVG Export Plug-In . SVG Version: 6.00 Build 0)  -->
<!DOCTYPE svg PUBLIC "-//W3C//DTD SVG 1.1 Tiny//EN" "http://www.w3.org/Graphics/SVG/1.1/DTD/svg11-tiny.dtd">
<svg version="1.1" baseProfile="tiny" id="Ebene_1" xmlns="http://www.w3.org/2000/svg" xmlns:xlink="http://www.w3.org/1999/xlink"
	 x="0px" y="0px" width="483px" height="483px" viewBox="13.5 13.5 483 483" xml:space="preserve">
<path d="M460.856,136.972c-0.564-0.826-1.3-1.521-2.156-2.036L392.3,96.62L325.9,58.26l-66.4-38.32c-2.166-1.248-4.833-1.248-7,0
	l-66.4,38.32l-66.4,38.36l-66.4,38.316c-2.165,1.252-3.498,3.563-3.5,6.064v230c0.001,2.501,1.335,4.813,3.5,6.064l66.4,38.332
	l66.4,38.331l66.4,38.337c2.167,1.247,4.834,1.247,7,0l66.4-38.337l66.399-38.331l66.4-38.332c2.165-1.252,3.499-3.563,3.5-6.064
	V141C462.185,139.55,461.715,138.141,460.856,136.972z M448.2,229.792v60.5l-52.4,30.248v-60.5l32.372-18.688L448.2,229.792z
	 M63.8,213.624v-60.5l52.4,30.252v60.5l-20.028-11.564L63.8,213.624z M448.2,213.624l-32.372,18.688L395.8,243.876v-60.5
	l52.4-30.252V213.624z M152.548,204.36l30.052,17.36v60.488l-52.4-30.248v-60.504L152.548,204.36z M353.384,191.696L322.4,209.6
	L270,179.324l52.4-30.24l52.399,30.24L353.384,191.696z M196.6,290.292V229.8l52.4,30.24v60.5L196.6,290.292z M381.8,191.456v60.504
	L329.4,282.208V221.72l30.052-17.36L381.8,191.456z M256,171.24L203.6,141l52.4-30.24L308.4,141L256,171.24z M130.2,268.124
	l52.4,30.252v60.5l-52.4-30.252V268.124z M196.6,366.96v-60.5l52.4,30.248V397.2L196.6,366.96z M329.4,298.376l52.399-30.252v60.5
	L329.4,358.876V298.376z M63.8,229.792l20.028,11.56L116.2,260.04v60.5l-52.4-30.248V229.792z M388.8,171.24L336.4,141l52.399-30.24
	L441.2,141L388.8,171.24z M322.4,132.916l-52.4-30.24L322.4,72.4l52.399,30.272L322.4,132.916z M256,34.084l52.4,30.24L256,94.596
	l-52.4-30.272L256,34.084z M189.6,72.4l52.4,30.272l-52.4,30.24l-52.4-30.24L189.6,72.4z M63.8,306.46l52.4,30.248v60.491
	L63.8,366.96V306.46z M130.2,344.8l52.4,30.248v60.504L130.2,405.3V344.8z M196.6,383.132l52.4,30.252v60.5l-52.4-30.252V383.132z
	 M329.4,375.048L381.8,344.8v60.5L329.4,435.552V375.048z M395.8,397.2v-60.492l52.4-30.248v60.5L395.8,397.2z"/>
<polygon points="315.4,383.13 315.4,443.63 263,473.88 263,413.38 "/>
<polygon points="315.4,306.46 315.4,366.96 263,397.2 263,336.71 "/>
<polygon points="315.4,229.8 315.4,290.29 263,320.54 263,260.04 "/>
<polygon points="308.4,217.67 256,247.92 203.6,217.67 256,187.4 "/>
<polygon points="242,179.32 189.6,209.6 158.6,191.71 137.2,179.32 189.6,149.08 "/>
<polygon points="175.6,141 123.2,171.24 70.8,141 123.2,110.76 "/>
</svg>
