<svg height="512" viewBox="0 0 128 128" width="512" xmlns="http://www.w3.org/2000/svg"><path d="m115.214 34.243a1.738 1.738 0 0 0 -.539-.509l-16.6-9.579-16.6-9.59-16.6-9.58a1.753 1.753 0 0 0 -1.75 0l-16.6 9.58-16.6 9.59-16.6 9.579a1.753 1.753 0 0 0 -.875 1.516v57.5a1.752 1.752 0 0 0 .875 1.516l16.6 9.583 16.6 9.583 16.6 9.584a1.753 1.753 0 0 0 1.75 0l16.6-9.584 16.6-9.583 16.6-9.583a1.752 1.752 0 0 0 .875-1.516v-57.5a1.731 1.731 0 0 0 -.336-1.007zm-3.164 23.205v15.125l-13.1 7.562v-15.125l8.093-4.672zm-96.1-4.042v-15.125l13.1 7.563v15.125l-5.007-2.891zm96.1 0-8.093 4.672-5.007 2.891v-15.125l13.1-7.563zm-73.913-2.316 7.513 4.34v15.122l-13.1-7.562v-15.126zm-3.837-6.259 13.1-7.56 13.1 7.56-13.1 7.569-7.749-4.473zm54.046 3.093-7.746 4.476-13.1-7.569 13.1-7.56 13.1 7.56zm-24.346 14.055-13.1-7.561 13.1-7.567 13.1 7.567zm-14.85 10.594v-15.123l13.1 7.56v15.125zm16.6-7.563 13.1-7.56v15.123l-13.1 7.562zm29.7-17.146v15.126l-13.1 7.562v-15.122l7.513-4.34zm-31.45-5.054-13.1-7.56 13.1-7.56 13.1 7.56zm-31.45 24.221 13.1 7.563v15.125l-13.1-7.563zm16.6 24.709v-15.125l13.1 7.562v15.123zm16.6-7.563 13.1-7.562v15.125l-13.1 7.56zm16.6-9.583 13.1-7.563v15.125l-13.1 7.563zm-66.4-17.146 5.007 2.89 8.093 4.672v15.125l-13.1-7.562zm81.25-14.638-13.1-7.56 13.1-7.56 13.1 7.56zm-16.6-9.581-13.1-7.56 13.1-7.569 13.1 7.568zm-16.6-24.708 13.1 7.56-13.1 7.568-13.1-7.568zm-16.6 9.579 13.1 7.568-13.1 7.56-13.1-7.56zm-16.6 9.59 13.1 7.56-13.1 7.56-13.1-7.56zm-14.85 48.925 13.1 7.562v15.123l-13.1-7.56zm16.6 9.585 13.1 7.562v15.126l-13.1-7.563zm16.6 9.583 13.1 7.563v15.125l-13.1-7.563zm16.6 7.563 13.1-7.563v15.125l-13.1 7.563zm16.6-9.584 13.1-7.562v15.125l-13.1 7.563zm16.6 5.538v-15.123l13.1-7.562v15.125z"/></svg>