<?xml version="1.0" encoding="utf-8"?>
<!-- Generator: Adobe Illustrator 16.0.0, SVG Export Plug-In . SVG Version: 6.00 Build 0)  -->
<!DOCTYPE svg PUBLIC "-//W3C//DTD SVG 1.1 Tiny//EN" "http://www.w3.org/Graphics/SVG/1.1/DTD/svg11-tiny.dtd">
<svg version="1.1" baseProfile="tiny" id="Ebene_1" xmlns="http://www.w3.org/2000/svg" xmlns:xlink="http://www.w3.org/1999/xlink"
	 x="0px" y="0px" width="483px" height="483px" viewBox="13.5 13.5 483 483" xml:space="preserve">
<path d="M460.856,136.972c-0.564-0.826-1.3-1.521-2.156-2.036L392.3,96.62L325.9,58.26l-66.4-38.32c-2.166-1.248-4.833-1.248-7,0
	l-66.4,38.32l-66.4,38.36l-66.4,38.316c-2.165,1.252-3.498,3.563-3.5,6.064v230c0.001,2.501,1.335,4.813,3.5,6.064l66.4,38.332
	l66.4,38.331l66.4,38.337c2.167,1.247,4.834,1.247,7,0l66.4-38.337l66.399-38.331l66.4-38.332c2.165-1.252,3.499-3.563,3.5-6.064
	V141C462.185,139.55,461.715,138.141,460.856,136.972z M448.2,229.792v60.5l-52.4,30.248v-60.5l32.372-18.688L448.2,229.792z
	 M137.2,179.324l52.4-30.24l52.4,30.24L189.6,209.6l-30.996-17.892L137.2,179.324z M353.384,191.696L322.4,209.6L270,179.324
	l52.4-30.24l52.399,30.24L353.384,191.696z M256,247.916l-52.4-30.244l52.4-30.268l52.4,30.268L256,247.916z M256,171.24L203.6,141
	l52.4-30.24L308.4,141L256,171.24z M130.2,268.124l52.4,30.252v60.5l-52.4-30.252V268.124z M196.6,366.96v-60.5l52.4,30.248V397.2
	L196.6,366.96z M263,336.708l52.4-30.248v60.5L263,397.2V336.708z M329.4,298.376l52.399-30.252v60.5L329.4,358.876V298.376z
	 M63.8,229.792l20.028,11.56L116.2,260.04v60.5l-52.4-30.248V229.792z M388.8,171.24L336.4,141l52.399-30.24L441.2,141L388.8,171.24
	z M322.4,132.916l-52.4-30.24L322.4,72.4l52.399,30.272L322.4,132.916z M256,34.084l52.4,30.24L256,94.596l-52.4-30.272L256,34.084z
	 M189.6,72.4l52.4,30.272l-52.4,30.24l-52.4-30.24L189.6,72.4z M123.2,110.76L175.6,141l-52.4,30.24L70.8,141L123.2,110.76z
	 M63.8,306.46l52.4,30.248v60.491L63.8,366.96V306.46z M130.2,344.8l52.4,30.248v60.504L130.2,405.3V344.8z M196.6,383.132
	l52.4,30.252v60.5l-52.4-30.252V383.132z M263,413.384l52.4-30.252v60.5L263,473.884V413.384z M329.4,375.048L381.8,344.8v60.5
	L329.4,435.552V375.048z M395.8,397.2v-60.492l52.4-30.248v60.5L395.8,397.2z"/>
<polygon points="448.2,153.12 448.2,213.62 415.83,232.31 395.8,243.88 395.8,183.38 "/>
<polygon points="381.8,191.46 381.8,251.96 329.4,282.21 329.4,221.72 359.45,204.36 "/>
<polygon points="315.4,229.8 315.4,290.29 263,320.54 263,260.04 "/>
<polygon points="249,260.04 249,320.54 196.6,290.29 196.6,229.8 "/>
<polygon points="182.6,221.72 182.6,282.21 130.2,251.96 130.2,191.46 152.55,204.36 "/>
<polygon points="116.2,183.38 116.2,243.88 96.17,232.31 63.8,213.62 63.8,153.12 "/>
</svg>
