<svg width="16" height="16" xmlns="http://www.w3.org/2000/svg" class="bi bi-skip-backward-fill">

 <g>
  <title>background</title>
  <rect fill="none" id="canvas_background" height="402" width="582" y="-1" x="-1"/>
 </g>
 <g>
  <title>Layer 1</title>
  <path id="svg_2" d="m0.904,8.697l6.363,3.692c0.54,0.313 1.233,-0.066 1.233,-0.697l0,-7.384c0,-0.63 -0.692,-1.01 -1.233,-0.696l-6.363,3.692a0.802,0.802 0 0 0 0,1.393z"/>
  <path id="svg_3" d="m8.404,8.697l6.363,3.692c0.54,0.313 1.233,-0.066 1.233,-0.697l0,-7.384c0,-0.63 -0.693,-1.01 -1.233,-0.696l-6.363,3.692a0.802,0.802 0 0 0 0,1.393z"/>
 </g>
</svg>